REM DIRINDEX 1\5,1\2\6,1\2\7,1\3\8,1\3\9,1\4\10,1\4\11,1\4\12
REM DIRNAME folder01,folder02,folder03,folder04,folder05,folder06,folder07,folder08,folder09,folder10,folder11,folder12
TITLE ""
FILE "EJE_DB3000_5th_4B_31.mp3" MP3
  TRACK 01 AUDIO
    TITLE "0:"
    INDEX 01 00:00:00
  TRACK 02 AUDIO
    TITLE "10:cjc026_09369"
    INDEX 01 00:00:05
  TRACK 03 AUDIO
    TITLE "0:"
    INDEX 01 00:01:01
  TRACK 04 AUDIO
    TITLE "11:cjc026_09370"
    INDEX 01 00:01:26
  TRACK 05 AUDIO
    TITLE "0:"
    INDEX 01 00:02:42
  TRACK 06 AUDIO
    TITLE "12:cjc026_09371"
    INDEX 01 00:02:69
  TRACK 07 AUDIO
    TITLE "0:"
    INDEX 01 00:03:64
  TRACK 08 AUDIO
    TITLE "10:cjc026_09372"
    INDEX 01 00:04:15
  TRACK 09 AUDIO
    TITLE "0:"
    INDEX 01 00:05:10
  TRACK 10 AUDIO
    TITLE "11:cjc026_09373"
    INDEX 01 00:05:38
  TRACK 11 AUDIO
    TITLE "0:"
    INDEX 01 00:06:53
  TRACK 12 AUDIO
    TITLE "12:cjc026_09374"
    INDEX 01 00:07:05
  TRACK 13 AUDIO
    TITLE "0:"
    INDEX 01 00:08:01
  TRACK 14 AUDIO
    TITLE "10:cjc026_09375"
    INDEX 01 00:08:28
  TRACK 15 AUDIO
    TITLE "0:"
    INDEX 01 00:09:16
  TRACK 16 AUDIO
    TITLE "11:cjc026_09376"
    INDEX 01 00:09:42
  TRACK 17 AUDIO
    TITLE "0:"
    INDEX 01 00:10:37
  TRACK 18 AUDIO
    TITLE "12:cjc026_09377"
    INDEX 01 00:10:63
  TRACK 19 AUDIO
    TITLE "0:"
    INDEX 01 00:11:52
  TRACK 20 AUDIO
    TITLE "10:cjc026_09378"
    INDEX 01 00:12:03
  TRACK 21 AUDIO
    TITLE "0:"
    INDEX 01 00:13:04
  TRACK 22 AUDIO
    TITLE "11:cjc026_09379"
    INDEX 01 00:13:30
  TRACK 23 AUDIO
    TITLE "0:"
    INDEX 01 00:14:31
  TRACK 24 AUDIO
    TITLE "12:cjc026_09380"
    INDEX 01 00:14:56
  TRACK 25 AUDIO
    TITLE "0:"
    INDEX 01 00:15:58
  TRACK 26 AUDIO
    TITLE "10:cjc026_09381"
    INDEX 01 00:16:08
  TRACK 27 AUDIO
    TITLE "0:"
    INDEX 01 00:17:00
  TRACK 28 AUDIO
    TITLE "11:cjc026_09382"
    INDEX 01 00:17:27
  TRACK 29 AUDIO
    TITLE "0:"
    INDEX 01 00:18:29
  TRACK 30 AUDIO
    TITLE "12:cjc026_09383"
    INDEX 01 00:18:54
  TRACK 31 AUDIO
    TITLE "0:"
    INDEX 01 00:19:46
  TRACK 32 AUDIO
    TITLE "10:cjc026_09384"
    INDEX 01 00:19:73
  TRACK 33 AUDIO
    TITLE "0:"
    INDEX 01 00:20:67
  TRACK 34 AUDIO
    TITLE "11:cjc026_09385"
    INDEX 01 00:21:19
  TRACK 35 AUDIO
    TITLE "0:"
    INDEX 01 00:22:13
  TRACK 36 AUDIO
    TITLE "12:cjc026_09386"
    INDEX 01 00:22:40
  TRACK 37 AUDIO
    TITLE "0:"
    INDEX 01 00:23:34
  TRACK 38 AUDIO
    TITLE "10:cjc026_09387"
    INDEX 01 00:23:61
  TRACK 39 AUDIO
    TITLE "0:"
    INDEX 01 00:24:55
  TRACK 40 AUDIO
    TITLE "11:cjc026_09388"
    INDEX 01 00:25:07
  TRACK 41 AUDIO
    TITLE "0:"
    INDEX 01 00:26:13
  TRACK 42 AUDIO
    TITLE "12:cjc026_09389"
    INDEX 01 00:26:42
  TRACK 43 AUDIO
    TITLE "0:"
    INDEX 01 00:27:36
  TRACK 44 AUDIO
    TITLE "10:cjc026_09390"
    INDEX 01 00:27:61
  TRACK 45 AUDIO
    TITLE "0:"
    INDEX 01 00:28:60
  TRACK 46 AUDIO
    TITLE "11:cjc026_09391"
    INDEX 01 00:29:07
  TRACK 47 AUDIO
    TITLE "0:"
    INDEX 01 00:30:32
  TRACK 48 AUDIO
    TITLE "12:cjc026_09392"
    INDEX 01 00:30:55
  TRACK 49 AUDIO
    TITLE "0:"
    INDEX 01 00:31:53
  TRACK 50 AUDIO
    TITLE "10:cjc026_09393"
    INDEX 01 00:32:03
  TRACK 51 AUDIO
    TITLE "0:"
    INDEX 01 00:32:74
  TRACK 52 AUDIO
    TITLE "11:cjc026_09394"
    INDEX 01 00:33:26
  TRACK 53 AUDIO
    TITLE "0:"
    INDEX 01 00:34:40
  TRACK 54 AUDIO
    TITLE "12:cjc026_09395"
    INDEX 01 00:34:65
  TRACK 55 AUDIO
    TITLE "0:"
    INDEX 01 00:35:61
  TRACK 56 AUDIO
    TITLE "10:cjc026_09396"
    INDEX 01 00:36:11
  TRACK 57 AUDIO
    TITLE "0:"
    INDEX 01 00:37:10
  TRACK 58 AUDIO
    TITLE "11:cjc026_09397"
    INDEX 01 00:37:40
  TRACK 59 AUDIO
    TITLE "0:"
    INDEX 01 00:38:51
  TRACK 60 AUDIO
    TITLE "12:cjc026_09398"
    INDEX 01 00:39:03
  TRACK 61 AUDIO
    TITLE "0:"
    INDEX 01 00:40:03
  TRACK 62 AUDIO
    TITLE "10:cjc026_09399"
    INDEX 01 00:40:30
  TRACK 63 AUDIO
    TITLE "0:"
    INDEX 01 00:41:26
  TRACK 64 AUDIO
    TITLE "11:cjc026_09400"
    INDEX 01 00:41:53
  TRACK 65 AUDIO
    TITLE "0:"
    INDEX 01 00:42:65
  TRACK 66 AUDIO
    TITLE "12:cjc026_09401"
    INDEX 01 00:43:15
  TRACK 67 AUDIO
    TITLE "0:"
    INDEX 01 00:44:11
  TRACK 68 AUDIO
    TITLE "10:cjc026_09402"
    INDEX 01 00:44:40
  TRACK 69 AUDIO
    TITLE "0:"
    INDEX 01 00:45:41
  TRACK 70 AUDIO
    TITLE "11:cjc026_09403"
    INDEX 01 00:45:69
  TRACK 71 AUDIO
    TITLE "0:"
    INDEX 01 00:47:19
  TRACK 72 AUDIO
    TITLE "12:cjc026_09404"
    INDEX 01 00:47:48
  TRACK 73 AUDIO
    TITLE "0:"
    INDEX 01 00:48:49
  TRACK 74 AUDIO
    TITLE "10:cjc026_09405"
    INDEX 01 00:49:02
  TRACK 75 AUDIO
    TITLE "0:"
    INDEX 01 00:50:11
  TRACK 76 AUDIO
    TITLE "11:cjc026_09406"
    INDEX 01 00:50:37
  TRACK 77 AUDIO
    TITLE "0:"
    INDEX 01 00:51:46
  TRACK 78 AUDIO
    TITLE "12:cjc026_09407"
    INDEX 01 00:51:71
  TRACK 79 AUDIO
    TITLE "0:"
    INDEX 01 00:53:04
  TRACK 80 AUDIO
    TITLE "10:cjc026_09408"
    INDEX 01 00:53:31
  TRACK 81 AUDIO
    TITLE "0:"
    INDEX 01 00:54:36
  TRACK 82 AUDIO
    TITLE "11:cjc026_09409"
    INDEX 01 00:54:60
  TRACK 83 AUDIO
    TITLE "0:"
    INDEX 01 00:55:59
  TRACK 84 AUDIO
    TITLE "12:cjc026_09410"
    INDEX 01 00:56:08
  TRACK 85 AUDIO
    TITLE "0:"
    INDEX 01 00:57:13
